<mxfile host="app.diagrams.net" modified="2023-03-03T01:55:59.947Z" agent="5.0 (Macintosh; Intel Mac OS X 10_15_7) AppleWebKit/537.36 (KHTML, like Gecko) Chrome/110.0.0.0 Safari/537.36" etag="5RiWZe1zCLq_E6lo-yun" version="20.8.23" type="github">
  <diagram name="第 1 页" id="uDifOT5Puxc2X5ruV2LZ">
    <mxGraphModel dx="858" dy="774" grid="1" gridSize="10" guides="1" tooltips="1" connect="1" arrows="1" fold="1" page="1" pageScale="1" pageWidth="827" pageHeight="1169" math="0" shadow="0">
      <root>
        <mxCell id="0" />
        <mxCell id="1" parent="0" />
        <mxCell id="2urF0DAI_AtSwV6A82Pw-1" value="" style="rounded=0;whiteSpace=wrap;html=1;" parent="1" vertex="1">
          <mxGeometry x="160" y="80" width="560" height="400" as="geometry" />
        </mxCell>
        <mxCell id="2urF0DAI_AtSwV6A82Pw-2" value="桌面内容" style="text;html=1;align=center;verticalAlign=middle;resizable=0;points=[];autosize=1;strokeColor=none;fillColor=none;" parent="1" vertex="1">
          <mxGeometry x="210" y="265" width="70" height="30" as="geometry" />
        </mxCell>
        <mxCell id="2urF0DAI_AtSwV6A82Pw-4" value="" style="endArrow=classic;html=1;rounded=0;entryX=1;entryY=0;entryDx=0;entryDy=0;" parent="1" edge="1">
          <mxGeometry width="50" height="50" relative="1" as="geometry">
            <mxPoint x="710" y="50" as="sourcePoint" />
            <mxPoint x="680" y="90" as="targetPoint" />
          </mxGeometry>
        </mxCell>
        <mxCell id="2urF0DAI_AtSwV6A82Pw-5" value="导航条" style="text;html=1;align=center;verticalAlign=middle;resizable=0;points=[];autosize=1;strokeColor=none;fillColor=none;" parent="1" vertex="1">
          <mxGeometry x="710" y="30" width="60" height="30" as="geometry" />
        </mxCell>
        <mxCell id="2urF0DAI_AtSwV6A82Pw-6" value="App" style="html=1;strokeColor=none;fillColor=#0079D6;labelPosition=center;verticalLabelPosition=middle;verticalAlign=top;align=center;fontSize=12;outlineConnect=0;spacingTop=-6;fontColor=#FFFFFF;sketch=0;shape=mxgraph.sitemap.page;" parent="1" vertex="1">
          <mxGeometry x="340" y="220" width="220" height="130" as="geometry" />
        </mxCell>
        <mxCell id="2urF0DAI_AtSwV6A82Pw-7" value="功能1 ｜ 功能2 ｜功能3 ｜ 功能4 ｜...&amp;nbsp;" style="rounded=1;whiteSpace=wrap;html=1;" parent="1" vertex="1">
          <mxGeometry x="170" y="90" width="510" height="20" as="geometry" />
        </mxCell>
        <mxCell id="dgJb1vjxK7M-T-eL1fty-1" value="" style="rounded=0;whiteSpace=wrap;html=1;" vertex="1" parent="1">
          <mxGeometry x="160" y="570" width="340" height="360" as="geometry" />
        </mxCell>
        <mxCell id="dgJb1vjxK7M-T-eL1fty-2" value="临时文件区" style="text;html=1;align=center;verticalAlign=middle;resizable=0;points=[];autosize=1;strokeColor=none;fillColor=none;" vertex="1" parent="1">
          <mxGeometry x="160" y="530" width="80" height="30" as="geometry" />
        </mxCell>
        <mxCell id="dgJb1vjxK7M-T-eL1fty-4" value="" style="image;html=1;image=img/lib/clip_art/general/Full_Folder_128x128.png" vertex="1" parent="1">
          <mxGeometry x="190" y="670" width="80" height="70" as="geometry" />
        </mxCell>
        <mxCell id="dgJb1vjxK7M-T-eL1fty-5" value="文件1" style="text;html=1;align=center;verticalAlign=middle;resizable=0;points=[];autosize=1;strokeColor=none;fillColor=none;" vertex="1" parent="1">
          <mxGeometry x="290" y="700" width="50" height="30" as="geometry" />
        </mxCell>
        <mxCell id="dgJb1vjxK7M-T-eL1fty-6" value="下载" style="strokeWidth=1;shadow=0;dashed=0;align=center;html=1;shape=mxgraph.mockup.buttons.button;strokeColor=#666666;fontColor=#ffffff;mainText=;buttonStyle=round;fontSize=17;fontStyle=1;fillColor=#008cff;whiteSpace=wrap;" vertex="1" parent="1">
          <mxGeometry x="350" y="700" width="50" height="30" as="geometry" />
        </mxCell>
        <mxCell id="dgJb1vjxK7M-T-eL1fty-7" value="" style="image;html=1;image=img/lib/clip_art/general/Full_Folder_128x128.png" vertex="1" parent="1">
          <mxGeometry x="190" y="750" width="80" height="70" as="geometry" />
        </mxCell>
        <mxCell id="dgJb1vjxK7M-T-eL1fty-8" value="文件2" style="text;html=1;align=center;verticalAlign=middle;resizable=0;points=[];autosize=1;strokeColor=none;fillColor=none;" vertex="1" parent="1">
          <mxGeometry x="290" y="780" width="50" height="30" as="geometry" />
        </mxCell>
        <mxCell id="dgJb1vjxK7M-T-eL1fty-9" value="下载" style="strokeWidth=1;shadow=0;dashed=0;align=center;html=1;shape=mxgraph.mockup.buttons.button;strokeColor=#666666;fontColor=#ffffff;mainText=;buttonStyle=round;fontSize=17;fontStyle=1;fillColor=#008cff;whiteSpace=wrap;" vertex="1" parent="1">
          <mxGeometry x="350" y="780" width="50" height="30" as="geometry" />
        </mxCell>
        <mxCell id="dgJb1vjxK7M-T-eL1fty-10" value="上传文件" style="strokeWidth=1;shadow=0;dashed=0;align=center;html=1;shape=mxgraph.mockup.buttons.button;strokeColor=#666666;fontColor=#ffffff;mainText=;buttonStyle=round;fontSize=17;fontStyle=1;fillColor=#008cff;whiteSpace=wrap;" vertex="1" parent="1">
          <mxGeometry x="389" y="620" width="91" height="30" as="geometry" />
        </mxCell>
        <mxCell id="dgJb1vjxK7M-T-eL1fty-11" value="文件列表" style="text;html=1;align=center;verticalAlign=middle;resizable=0;points=[];autosize=1;strokeColor=none;fillColor=none;" vertex="1" parent="1">
          <mxGeometry x="190" y="620" width="70" height="30" as="geometry" />
        </mxCell>
      </root>
    </mxGraphModel>
  </diagram>
</mxfile>
